# xmcd
#
# Track frame offsets:
#	150
#	11462
#	22637
#	35743
#	46996
#	59502
#	72621
#	86237
#	98433
#	109981
#	122648
#	134946
#	148082
#	159652
#	171325
#	183310
#	194181
#	207330
#	219340
#	231921
#	244622
#	257396
#	269507
#	283101
#
# Disc length: 3969 seconds
#
# Revision: 0
# Processed by: cddbd v1.5.2PL0 Copyright (c) Steve Scherf et al.
# Submitted via: dBpowerAMP V4.0
#
DISCID=720f7f18
DTITLE=Sonny Boy Williamson II - Harmonica Wizard
DYEAR=1900
DGENRE=Blues
TTITLE0=She Brought Life Back to the Dead
TTITLE1=Do It if You Wanta
TTITLE2=Stop Crying
TTITLE3=Mr. Down Child
TTITLE4=Come On Back Home
TTITLE5=Catfish Blues
TTITLE6=Eyeshight to the Blind
TTITLE7=I Cross My Heart
TTITLE8=Too Close Together
TTITLE9=West Memphis Blues
TTITLE10=Gonna Find My Baby
TTITLE11=Cool, Cool Blues
TTITLE12=Don't Start Me to Talkin'
TTITLE13=Red Hot Kisses
TTITLE14=Empty Bedroom
TTITLE15=Gettin' Out of Town
TTITLE16=Let Me Explain
TTITLE17=From the Bottom
TTITLE18=Boppin' with Sonny
TTITLE19=All My Love in Vain
TTITLE20=Keep It to Yourself
TTITLE21=Pontiac Blues
TTITLE22=Your Imagination
TTITLE23=The Key
EXTD=
EXTT0=
EXTT1=
EXTT2=
EXTT3=
EXTT4=
EXTT5=
EXTT6=
EXTT7=
EXTT8=
EXTT9=
EXTT10=
EXTT11=
EXTT12=
EXTT13=
EXTT14=
EXTT15=
EXTT16=
EXTT17=
EXTT18=
EXTT19=
EXTT20=
EXTT21=
EXTT22=
EXTT23=
PLAYORDER=
